<?xml version="1.0" encoding="UTF-8"?> <svg xmlns="http://www.w3.org/2000/svg" width="18" height="22" viewBox="0 0 18 22" fill="none"><path d="M0.750012 5.07091L3.27871 9.61651L3.27865 12.3892L0.752684 16.9257L0.750012 5.07091Z" fill="#5B57A2"></path><path d="M10.4596 7.96261L12.8292 6.50215L17.6787 6.49772L10.4595 10.9449L10.4596 7.96261Z" fill="#D90751"></path><path d="M10.4462 5.04437L10.4595 11.0625L7.92479 9.49622L7.92501 0.500173L10.4462 5.04437Z" fill="#FAB718"></path><path d="M17.6787 6.49772L12.8292 6.50215L10.4462 5.04437L7.92501 0.500173L17.6787 6.49772Z" fill="#ED6F26"></path><path d="M10.4593 16.9511L10.4594 14.0313L7.92472 12.4948L7.92589 21.4998L10.4593 16.9511Z" fill="#63B22F"></path><path d="M12.823 15.504L3.27871 9.61651L0.750012 5.07091L17.6682 15.4981L12.823 15.504Z" fill="#1487C9"></path><path d="M7.92589 21.4998L10.4593 16.9511L12.823 15.504L17.6682 15.4981L7.92589 21.4998Z" fill="#017F36"></path><path d="M0.752684 16.9257L7.94543 12.495L5.52733 11.0029L3.27865 12.3892L0.752684 16.9257Z" fill="#984995"></path></svg> 